<svg xmlns="http://www.w3.org/2000/svg" width="16.791" height="16.791" viewBox="0 0 16.791 16.791">
  <g id="Group_416" data-name="Group 416" transform="translate(-137.014 -533.522)">
    <path id="Icon_awesome-comment-alt" data-name="Icon awesome-comment-alt" d="M14.692,0H2.1A2.1,2.1,0,0,0,0,2.1v9.445a2.1,2.1,0,0,0,2.1,2.1H5.247V16.4a.394.394,0,0,0,.626.318l4.1-3.073h4.722a2.1,2.1,0,0,0,2.1-2.1V2.1A2.1,2.1,0,0,0,14.692,0Z" transform="translate(137.014 533.522)" fill="#ffd400"/>
    <line id="Line_210" data-name="Line 210" x2="11" transform="translate(140.5 536.5)" fill="none" stroke="#fff" stroke-linecap="round" stroke-width="1"/>
    <line id="Line_211" data-name="Line 211" x2="11" transform="translate(140.5 540.5)" fill="none" stroke="#fff" stroke-linecap="round" stroke-width="1"/>
    <line id="Line_212" data-name="Line 212" x2="11" transform="translate(140.5 544.5)" fill="none" stroke="#fff" stroke-linecap="round" stroke-width="1"/>
  </g>
</svg>
