<svg xmlns="http://www.w3.org/2000/svg" width="16.767" height="15.726" viewBox="0 0 16.767 15.726">
  <g id="Group_1393" data-name="Group 1393" transform="translate(-339.733 63.209) rotate(180)">
    <g id="Group_1391" data-name="Group 1391" transform="translate(-356.5 47.483)">
      <path id="Path_2656" data-name="Path 2656" d="M-351.379,47.6a1.909,1.909,0,0,1,1.327.007,1.605,1.605,0,0,1,.726.934,8.216,8.216,0,0,1,.342,2.744,10.219,10.219,0,0,1-.358,2.5c1.174,0,2.349,0,3.523,0a2.208,2.208,0,0,1,1.743.662,1.651,1.651,0,0,1,.343.956v.132a1.915,1.915,0,0,1-.736,1.279,1.671,1.671,0,0,1,.3,1.022,1.623,1.623,0,0,1-.767,1.118,2.164,2.164,0,0,1,.108,1.169,1.73,1.73,0,0,1-1.052,1.138,1.42,1.42,0,0,1-.468,1.415,2,2,0,0,1-1.413.532c-1.643,0-3.286,0-4.929,0a9.223,9.223,0,0,1-2.566-.964,1.1,1.1,0,0,1-.984.96c-1.075.012-2.15.005-3.224,0a1.075,1.075,0,0,1-1.04-.988V54.743a1.056,1.056,0,0,1,.969-.955c1.092-.007,2.184,0,3.277,0a1.049,1.049,0,0,1,.882.561,10.362,10.362,0,0,0,2.437-2.724,2.651,2.651,0,0,0,.331-.784c.138-.75.278-1.5.415-2.249a2.68,2.68,0,0,1,.13-.557A1.106,1.106,0,0,1-351.379,47.6Zm.212.969c-.188.939-.343,1.886-.514,2.828a10.141,10.141,0,0,1-3.588,4.213c0,1.831,0,3.663,0,5.494a15.865,15.865,0,0,1,1.92.842,2.055,2.055,0,0,0,.9.162c1.612,0,3.224,0,4.836,0,.343.011.8-.207.743-.612.028-.292-.185-.62.019-.879.289-.2.674-.238.909-.516a.752.752,0,0,0,.069-.706c-.072-.279-.329-.545-.192-.845.15-.25.474-.3.671-.5a.763.763,0,0,0,.006-1.019c-.12-.169-.322-.361-.2-.586.159-.2.408-.286.572-.477a.621.621,0,0,0,.017-.872,1.354,1.354,0,0,0-.894-.281c-1.566,0-3.131,0-4.7,0-.458.022-.633-.65-.3-.911a.6.6,0,0,1,.448-.114,11.134,11.134,0,0,0,.421-2.3,10.943,10.943,0,0,0-.086-1.759,2.658,2.658,0,0,0-.4-1.2A4.387,4.387,0,0,0-351.168,48.569Zm-8.288,6.242q0,3.675,0,7.352c1.053,0,2.105,0,3.158,0q0-3.676,0-7.353Q-357.877,54.809-359.456,54.811Z" transform="translate(360.5 -47.483)"/>
    </g>
  </g>
</svg>
